<svg width="24" height="24" viewBox="0 0 24 24" fill="none" xmlns="http://www.w3.org/2000/svg">
    <path d="M16.8503 0H7.14973C3.20735 0 0 3.20735 0 7.14973V16.8503C0 20.7926 3.20735 24 7.14973 24H16.8503C20.7926 24 24 20.7926 24 16.8503V7.14973C24 3.20735 20.7926 0 16.8503 0ZM21.5856 16.8503C21.5856 19.4655 19.4655 21.5856 16.8503 21.5856H7.14973C4.5345 21.5856 2.4144 19.4655 2.4144 16.8503V7.14973C2.4144 4.53446 4.5345 2.4144 7.14973 2.4144H16.8503C19.4655 2.4144 21.5856 4.53446 21.5856 7.14973V16.8503Z" fill="#FDFDDF"/>
    <path d="M12.0005 5.79279C8.57778 5.79279 5.79321 8.57735 5.79321 12C5.79321 15.4226 8.57778 18.2072 12.0005 18.2072C15.4232 18.2072 18.2077 15.4227 18.2077 12C18.2077 8.57731 15.4232 5.79279 12.0005 5.79279ZM12.0005 15.7929C9.90571 15.7929 8.20761 14.0948 8.20761 12C8.20761 9.90529 9.90576 8.20718 12.0005 8.20718C14.0952 8.20718 15.7933 9.90529 15.7933 12C15.7933 14.0947 14.0952 15.7929 12.0005 15.7929Z" fill="#FDFDDF"/>
    <path d="M18.2193 7.32676C19.0408 7.32676 19.7067 6.66084 19.7067 5.83938C19.7067 5.01792 19.0408 4.35199 18.2193 4.35199C17.3979 4.35199 16.7319 5.01792 16.7319 5.83938C16.7319 6.66084 17.3979 7.32676 18.2193 7.32676Z" fill="#FDFDDF"/>
</svg>
