<svg width="24" height="24" viewBox="0 0 24 24" fill="none" xmlns="http://www.w3.org/2000/svg">
    <path d="M8.83368 12.2226C8.91531 12.3037 8.96534 12.4158 8.96534 12.5401C8.96534 12.7882 8.76416 12.9893 8.51612 12.9893H6.71874C6.4707 12.9893 6.26953 12.7882 6.26953 12.5401V9.1481C6.26953 9.02382 6.32009 8.91165 6.40119 8.83002C6.48229 8.74839 6.59499 8.69836 6.71874 8.69836C6.96679 8.69836 7.16796 8.89954 7.16796 9.1481V12.0909H8.51612C8.64041 12.0909 8.75258 12.1409 8.83368 12.2226Z" fill="#FDFDDF"/>
    <path d="M10.2903 9.04962V12.6381C10.2903 12.8324 10.1328 12.9893 9.93905 12.9893H9.74262C9.54882 12.9893 9.39136 12.8324 9.39136 12.6381V9.04962C9.39136 8.85583 9.54882 8.69836 9.74262 8.69836H9.93905C10.1328 8.69836 10.2903 8.85583 10.2903 9.04962Z" fill="#FDFDDF"/>
    <path d="M14.4688 9.1481V12.5212C14.4688 12.7708 14.265 12.9914 14.0154 12.9893C13.8974 12.9883 13.791 12.9419 13.7115 12.8666C13.6846 12.8413 11.863 10.4805 11.863 10.4805V12.5401C11.863 12.6644 11.8125 12.7766 11.7314 12.8577C11.6503 12.9393 11.5376 12.9893 11.4138 12.9893C11.1658 12.9893 10.9646 12.7882 10.9646 12.5401V9.16654C10.9646 8.92165 11.1516 8.70837 11.3964 8.69889C11.5365 8.69362 11.6629 8.75261 11.7487 8.84898C11.7761 8.87952 13.5704 11.2204 13.5704 11.2204V9.1481C13.5704 9.02382 13.6209 8.91165 13.702 8.83002C13.7831 8.74892 13.8958 8.69889 14.0196 8.69836C14.2676 8.69836 14.4688 8.89954 14.4688 9.1481Z" fill="#FDFDDF"/>
    <path d="M16.0408 9.59732V10.3946H17.3889C17.5132 10.3946 17.6254 10.4452 17.7065 10.5263C17.7881 10.6074 17.8381 10.7201 17.8381 10.8438C17.8381 11.0919 17.637 11.2931 17.3889 11.2931H16.0408V12.0909H17.3889C17.5132 12.0909 17.6254 12.1409 17.7065 12.2226C17.7881 12.3037 17.8381 12.4158 17.8381 12.5401C17.8381 12.7882 17.637 12.9893 17.3889 12.9893H15.5915C15.3435 12.9893 15.1423 12.7882 15.1423 12.5401V9.1481C15.1423 8.89954 15.3435 8.69836 15.5915 8.69836H17.3889C17.637 8.69836 17.8381 8.89954 17.8381 9.1481C17.8381 9.39615 17.637 9.59732 17.3889 9.59732H16.0408Z" fill="#FDFDDF"/>
    <path d="M0 0V24H24V0H0ZM20.7802 11.0334C20.7712 11.174 20.7512 11.3525 20.7107 11.5647C20.6027 12.242 20.3726 12.8882 20.0392 13.4901C19.8823 13.7734 19.1118 14.853 18.8754 15.1379C17.5767 16.702 15.4023 18.5078 11.7659 20.2625C11.4262 20.4263 11.0392 20.154 11.0808 19.7796L11.264 18.1302C11.2935 17.8669 11.1034 17.6294 10.8406 17.602C6.53598 17.1512 3.21348 14.2221 3.21348 10.6753C3.21348 6.81667 7.14634 3.68903 11.9976 3.68903C16.712 3.68903 20.559 6.64288 20.7718 10.3509C20.7781 10.4583 20.7955 10.8022 20.7802 11.0334Z" fill="#FDFDDF"/>
</svg>
