<svg width="23" height="24" viewBox="0 0 23 24" fill="none" xmlns="http://www.w3.org/2000/svg">
    <path d="M20.7 0H2.3C1.035 0 0 1.08 0 2.4V21.6C0 22.92 1.035 24 2.3 24H20.7C21.965 24 23 22.92 23 21.6V2.4C23 1.08 21.965 0 20.7 0ZM6.9 20.4H3.45V9.6H6.9V20.4ZM5.175 7.56C4.025 7.56 3.105 6.6 3.105 5.4C3.105 4.2 4.025 3.24 5.175 3.24C6.325 3.24 7.245 4.2 7.245 5.4C7.245 6.6 6.325 7.56 5.175 7.56ZM19.55 20.4H16.1V14.04C16.1 13.08 15.295 12.24 14.375 12.24C13.455 12.24 12.65 13.08 12.65 14.04V20.4H9.2V9.6H12.65V11.04C13.225 10.08 14.49 9.36 15.525 9.36C17.71 9.36 19.55 11.28 19.55 13.56V20.4Z" fill="#FDFDDF"/>
</svg>
