<svg width="32" height="32" viewBox="0 0 24 26" fill="none" xmlns="http://www.w3.org/2000/svg">
    <path class="red" d="M13.9509 2.02C15.2609 2 16.5609 2.01 17.8609 2C17.9409 3.53 18.4909 5.09 19.6109 6.17C20.7309 7.28 22.3109 7.79 23.8509 7.96V11.99C22.4109 11.94 20.9609 11.64 19.6509 11.02C19.0809 10.76 18.5509 10.43 18.0309 10.09C18.0209 13.01 18.0409 15.93 18.0109 18.84C17.9309 20.24 17.4709 21.63 16.6609 22.78C15.3509 24.7 13.0809 25.95 10.7509 25.99C9.3209 26.07 7.8909 25.68 6.6709 24.96C4.6509 23.77 3.2309 21.59 3.0209 19.25C3.0009 18.75 2.9909 18.25 3.0109 17.76C3.1909 15.86 4.1309 14.04 5.5909 12.8C7.2509 11.36 9.5709 10.67 11.7409 11.08C11.7609 12.56 11.7009 14.04 11.7009 15.52C10.7109 15.2 9.5509 15.29 8.6809 15.89C8.0509 16.3 7.5709 16.93 7.3209 17.64C7.1109 18.15 7.1709 18.71 7.1809 19.25C7.4209 20.89 9.0009 22.27 10.6809 22.12C11.8009 22.11 12.8709 21.46 13.4509 20.51C13.6409 20.18 13.8509 19.84 13.8609 19.45C13.9609 17.66 13.9209 15.88 13.9309 14.09C13.9409 10.06 13.9209 6.04 13.9509 2.02Z" fill-opacity="0"/>
    <path class="blue" d="M11.9509 0.02C13.2609 0 14.5609 0.01 15.8609 0C15.9409 1.53 16.4909 3.09 17.6109 4.17C18.7309 5.28 20.3109 5.79 21.8509 5.96V9.99C20.4109 9.94 18.9609 9.64 17.6509 9.02C17.0809 8.76 16.5509 8.43 16.0309 8.09C16.0209 11.01 16.0409 13.93 16.0109 16.84C15.9309 18.24 15.4709 19.63 14.6609 20.78C13.3509 22.7 11.0809 23.95 8.7509 23.99C7.3209 24.07 5.8909 23.68 4.6709 22.96C2.6509 21.77 1.2309 19.59 1.0209 17.25C1.0009 16.75 0.990902 16.25 1.0109 15.76C1.1909 13.86 2.1309 12.04 3.5909 10.8C5.2509 9.36 7.5709 8.67 9.7409 9.08C9.7609 10.56 9.7009 12.04 9.7009 13.52C8.7109 13.2 7.5509 13.29 6.6809 13.89C6.0509 14.3 5.5709 14.93 5.3209 15.64C5.1109 16.15 5.1709 16.71 5.1809 17.25C5.4209 18.89 7.0009 20.27 8.6809 20.12C9.8009 20.11 10.8709 19.46 11.4509 18.51C11.6409 18.18 11.8509 17.84 11.8609 17.45C11.9609 15.66 11.9209 13.88 11.9309 12.09C11.9409 8.06 11.9209 4.04 11.9509 0.02Z" fill-opacity="0"/>
    <path class="main" d="M12.9509 1.02C14.2609 1 15.5609 1.01 16.8609 1C16.9409 2.53 17.4909 4.09 18.6109 5.17C19.7309 6.28 21.3109 6.79 22.8509 6.96V10.99C21.4109 10.94 19.9609 10.64 18.6509 10.02C18.0809 9.76 17.5509 9.43 17.0309 9.09C17.0209 12.01 17.0409 14.93 17.0109 17.84C16.9309 19.24 16.4709 20.63 15.6609 21.78C14.3509 23.7 12.0809 24.95 9.7509 24.99C8.3209 25.07 6.8909 24.68 5.6709 23.96C3.6509 22.77 2.2309 20.59 2.0209 18.25C2.0009 17.75 1.9909 17.25 2.0109 16.76C2.1909 14.86 3.1309 13.04 4.5909 11.8C6.2509 10.36 8.5709 9.67 10.7409 10.08C10.7609 11.56 10.7009 13.04 10.7009 14.52C9.7109 14.2 8.5509 14.29 7.6809 14.89C7.0509 15.3 6.5709 15.93 6.3209 16.64C6.1109 17.15 6.1709 17.71 6.1809 18.25C6.4209 19.89 8.0009 21.27 9.6809 21.12C10.8009 21.11 11.8709 20.46 12.4509 19.51C12.6409 19.18 12.8509 18.84 12.8609 18.45C12.9609 16.66 12.9209 14.88 12.9309 13.09C12.9409 9.06 12.9209 5.04 12.9509 1.02Z" fill="#FDFDDF"/>
</svg>
