<svg version="1" xmlns="http://www.w3.org/2000/svg" width="682.667" height="682.667" viewBox="0 0 512.000000 512.000000"><path d="M59 65.6c0 .4 1.4 6.3 3.1 13.3 1.7 6.9 4.3 18.2 5.9 25.1 1.6 6.9 5.1 21.9 7.9 33.5 2.7 11.5 10.2 43.3 16.6 70.5 6.5 27.2 16.2 68.4 21.7 91.5 5.4 23.1 13 55.3 16.8 71.5 3.9 16.2 8.3 34.9 9.8 41.5l2.9 12 4.3.5 4.3.5L155 437l2.7 11.5h61.6l7.7-27c6.4-22.4 23.1-81.2 24.6-86.5.2-.8 1.4-5.1 2.6-9.4l2.2-7.9 1.2 3.9c1.5 4.8 9.8 33.9 13 45.6 2.4 8.8 10.9 38.7 14.5 51 1.9 6.5 2 6.7 5.6 7 3.4.3 3.7.6 5 5.3.8 2.7 2.3 8 3.4 11.7l2 6.8h61.4l11.2-47.8c26.5-112.1 30.5-129.2 32.8-138.7 1.3-5.5 4-17 6-25.5s5.2-22 7.1-30c2-8 3.9-16.3 4.4-18.5.4-2.2 5.8-25.1 11.9-50.9C442 111.8 447 90.3 447 89.8c0-.4-4.3-.8-9.5-.8s-9.5-.2-9.5-.5 1.1-5.3 2.5-11.1 2.5-11 2.5-11.5-12.8-.9-30.4-.9c-28.2 0-30.5.1-31 1.7-.3 1-3.5 14.5-7.1 30-3.6 15.5-6.7 28.8-7 29.5-.2.7-.7 2.4-.9 3.8-.3 1.4-2.1 9.2-4.1 17.5-30.1 128-34 144.3-34.7 143.2-.5-1-14.9-50.9-22.3-77.7-1.3-4.7-6.9-24.5-12.5-44-15.1-52.9-19-66.9-20.7-73.3-.9-3.1-1.8-5.7-2.2-5.7-.3 0-1.3 2.4-2.1 5.2l-1.6 5.3-3.3-11.5c-1.8-6.3-4-14.1-4.8-17.3-.9-3.1-1.8-5.7-2.2-5.7-.5 0-18.7 63-25.7 89-1.6 5.7-16.9 59.8-18.9 66.5-5.1 17.3-18.5 65.2-18.5 66.2 0 .7-.4 1.3-.8 1.3s-1.8-4.2-3-9.3c-1.2-5-6.7-28.3-12.2-51.7-5.5-23.4-11.6-49-13.4-57-6-24.9-17.8-75.4-18.5-78.5-.6-2.7-1.1-3-4.9-3.3-4.7-.4-4.3.4-8-15.7l-1.8-8-30.7-.3c-16.9-.1-30.7.1-30.7.4z"/></svg>